<?xml version="1.0" standalone="no"?>
<!DOCTYPE svg PUBLIC "-//W3C//DTD SVG 20010904//EN"
 "http://www.w3.org/TR/2001/REC-SVG-20010904/DTD/svg10.dtd">
<svg version="1.0" xmlns="http://www.w3.org/2000/svg"
 width="1024.000000pt" height="1024.000000pt" viewBox="0 0 1024.000000 1024.000000"
 preserveAspectRatio="xMidYMid meet">
<metadata>
Created by potrace 1.14, written by Peter Selinger 2001-2017
</metadata>
<g transform="translate(0.000000,1024.000000) scale(0.100000,-0.100000)"
fill="#000000" stroke="none">
<path d="M4878 9265 c-2 -2 -44 -6 -93 -10 -50 -3 -101 -8 -115 -10 -14 -2
-43 -6 -65 -9 -22 -3 -58 -8 -80 -11 -22 -3 -49 -6 -60 -9 -11 -2 -40 -7 -65
-11 -58 -9 -74 -12 -135 -25 -27 -6 -59 -12 -71 -14 -31 -6 -227 -57 -244 -63
-8 -3 -20 -7 -27 -9 -16 -3 -174 -53 -193 -61 -8 -3 -19 -7 -25 -8 -5 0 -23
-7 -40 -14 -16 -6 -66 -26 -110 -42 -108 -42 -194 -80 -360 -163 -119 -59
-200 -105 -409 -231 -43 -26 -283 -198 -318 -227 -15 -13 -55 -45 -89 -73 -71
-56 -134 -113 -222 -197 -33 -32 -61 -58 -63 -58 -3 0 -74 -74 -138 -144 -20
-22 -36 -44 -36 -50 0 -5 -3 -6 -6 -3 -4 4 -22 -14 -41 -38 -19 -25 -38 -45
-43 -45 -6 0 -9 -3 -8 -7 3 -8 -25 -44 -64 -85 -10 -10 -18 -22 -18 -27 0 -5
-3 -11 -7 -13 -10 -4 -83 -95 -83 -103 0 -3 -11 -18 -25 -33 -14 -15 -25 -32
-25 -39 0 -7 -5 -13 -10 -13 -6 0 -14 -8 -18 -17 -7 -17 -81 -132 -92 -143
-20 -20 -123 -203 -202 -360 -35 -69 -67 -128 -73 -132 -5 -4 -7 -8 -2 -8 4 0
1 -13 -8 -30 -8 -16 -14 -31 -13 -33 2 -2 -2 -10 -9 -18 -13 -16 -106 -247
-134 -334 -43 -132 -81 -251 -85 -267 -2 -10 -6 -26 -8 -35 -2 -10 -14 -56
-25 -103 -29 -117 -31 -124 -46 -215 -3 -22 -8 -47 -10 -55 -6 -21 -13 -66
-19 -122 -3 -26 -8 -58 -10 -70 -37 -169 -42 -754 -10 -1028 12 -111 23 -184
34 -245 5 -27 12 -66 15 -85 4 -19 11 -55 16 -80 6 -25 13 -56 15 -70 3 -14 7
-33 10 -42 3 -10 7 -29 10 -42 2 -14 20 -80 40 -148 20 -68 37 -127 39 -133 1
-5 5 -17 8 -25 3 -8 19 -53 36 -100 94 -267 226 -550 366 -785 55 -92 60 -99
107 -166 16 -21 28 -42 28 -47 0 -4 11 -20 25 -35 14 -15 22 -27 18 -27 -4 0
-3 -4 2 -8 18 -13 75 -90 75 -101 0 -6 3 -11 8 -11 4 0 27 -27 51 -60 24 -33
48 -60 52 -60 5 0 9 -5 9 -11 0 -6 6 -16 12 -23 7 -7 38 -42 68 -77 110 -127
414 -423 505 -492 5 -4 28 -23 49 -42 22 -19 46 -35 53 -35 7 0 13 -4 13 -8 0
-5 30 -30 68 -57 37 -27 69 -52 72 -56 3 -3 10 -8 15 -10 6 -2 55 -34 110 -70
133 -89 259 -165 261 -159 1 3 10 -2 20 -11 34 -29 397 -205 484 -234 3 -1 19
-7 35 -14 17 -7 35 -14 40 -15 6 -2 21 -8 35 -13 32 -13 240 -84 260 -88 8 -2
15 -4 15 -5 0 -1 7 -3 15 -5 8 -2 76 -19 150 -39 74 -19 151 -38 170 -41 19
-3 42 -8 51 -11 10 -2 32 -7 50 -10 19 -2 43 -6 54 -8 127 -23 248 -39 405
-53 172 -15 703 -8 822 12 25 4 147 21 218 30 61 8 354 72 413 90 26 8 47 11
47 8 0 -3 7 1 17 8 9 8 17 13 17 11 1 -5 56 8 91 21 17 7 32 12 35 13 16 2 96
27 119 36 14 6 31 12 36 14 76 23 312 124 457 196 64 32 121 58 127 58 6 0 11
4 11 8 0 5 17 16 38 26 42 20 284 166 292 176 3 3 26 19 52 35 27 17 48 33 48
38 0 4 5 7 11 7 6 0 24 10 39 23 16 12 53 40 84 62 30 22 55 43 56 48 0 4 7 7
15 7 8 0 15 4 15 8 0 4 23 26 51 47 29 22 69 55 90 75 20 19 54 50 76 69 42
37 182 171 179 171 -1 0 23 26 53 58 88 92 229 258 287 337 16 22 34 45 39 52
24 29 34 43 101 143 172 254 349 587 447 840 30 79 61 163 63 170 0 3 3 12 7
20 13 33 67 206 70 225 1 11 6 25 9 31 4 6 9 21 12 35 3 13 12 51 20 84 20 82
64 301 71 350 45 326 49 371 49 670 1 236 -7 437 -19 485 -2 8 -6 42 -10 75
-7 76 -15 126 -34 230 -10 56 -15 79 -25 123 -2 9 -11 51 -20 92 -8 41 -34
136 -56 210 -22 74 -42 142 -44 151 -12 48 -64 190 -100 271 -9 20 -16 40 -16
45 0 5 -13 36 -29 69 -15 32 -36 77 -45 99 -10 22 -23 49 -28 60 -6 11 -15 28
-20 38 -89 185 -311 554 -340 565 -4 2 -8 10 -8 18 0 8 -4 14 -10 14 -5 0 -10
5 -10 10 0 9 -157 216 -194 257 -6 6 -31 35 -56 64 -60 70 -352 362 -419 419
-29 25 -58 50 -65 55 -6 6 -33 28 -61 50 -27 22 -51 43 -53 48 -2 4 -8 7 -14
7 -5 0 -15 6 -23 13 -7 6 -26 22 -42 34 -15 12 -39 31 -52 42 -13 12 -30 21
-37 21 -7 0 -14 4 -16 8 -4 11 -161 116 -273 182 -127 75 -184 105 -398 211
-22 10 -45 19 -53 19 -8 0 -14 4 -14 9 0 5 -15 13 -32 16 -18 4 -37 11 -43 15
-5 3 -41 19 -80 35 -38 15 -79 31 -90 36 -121 49 -484 152 -660 185 -22 5 -42
9 -45 9 -3 1 -27 5 -55 10 -27 4 -58 9 -69 11 -10 2 -44 6 -75 10 -31 3 -59 8
-62 10 -4 2 -37 6 -75 10 -38 3 -85 8 -104 11 -42 5 -626 13 -632 8z"/>
</g>
</svg>
